<svg width="126" height="34" viewBox="0 0 126 34" fill="none" xmlns="http://www.w3.org/2000/svg">
<path d="M25.65 19.86V22.05H7.41C7.53 22.65 7.72 23.21 7.98 23.73C8.26 24.23 8.57 24.66 8.91 25.02C9.29 25.42 9.69 25.75 10.11 26.01C10.53 26.27 11.04 26.47 11.64 26.61C11.9 26.69 12.17 26.75 12.45 26.79C12.75 26.83 13.06 26.85 13.38 26.85C14.34 26.85 15.22 26.69 16.02 26.37C16.82 26.05 17.47 25.6 17.97 25.02C18.09 24.88 18.2 24.73 18.3 24.57C18.4 24.41 18.49 24.25 18.57 24.09H25.44C25.16 25.33 24.75 26.41 24.21 27.33C23.67 28.25 23.07 29.02 22.41 29.64C21.65 30.4 20.79 31.05 19.83 31.59C18.89 32.13 17.86 32.55 16.74 32.85C16.2 32.99 15.64 33.1 15.06 33.18C14.48 33.26 13.89 33.3 13.29 33.3C11.75 33.3 10.35 33.08 9.09 32.64C7.85 32.18 6.74 31.57 5.76 30.81C3.62 29.17 2.15 26.98 1.35 24.24C0.95 22.88 0.75 21.42 0.75 19.86C0.75 18.36 0.96 16.92 1.38 15.54C1.8 14.16 2.39 12.93 3.15 11.85C3.93 10.75 4.84 9.81 5.88 9.03C6.94 8.25 8.1 7.65 9.36 7.23C10.64 6.81 11.97 6.6 13.35 6.6C14.69 6.6 16 6.83 17.28 7.29C18.56 7.73 19.69 8.35 20.67 9.15C21.69 9.99 22.57 10.95 23.31 12.03C24.07 13.11 24.65 14.33 25.05 15.69C25.45 17.01 25.65 18.4 25.65 19.86ZM7.53 17.55H19.02C18.7 16.49 18.16 15.58 17.4 14.82C16.66 14.08 15.79 13.56 14.79 13.26C14.53 13.2 14.27 13.15 14.01 13.11C13.75 13.07 13.48 13.05 13.2 13.05C12.18 13.05 11.2 13.32 10.26 13.86C9.92 14.06 9.56 14.34 9.18 14.7C8.82 15.06 8.49 15.51 8.19 16.05C7.91 16.55 7.69 17.05 7.53 17.55ZM32.6848 6.9L34.8148 20.34C34.8948 20.8 34.9648 21.32 35.0248 21.9C35.1048 22.46 35.1648 23.01 35.2048 23.55C35.2448 24.07 35.2848 24.62 35.3248 25.2C35.3648 25.76 35.4048 26.34 35.4448 26.94C35.4448 27.22 35.4448 27.49 35.4448 27.75V28.5H35.9248C35.9248 28.02 35.9348 27.48 35.9548 26.88C35.9948 26.28 36.0448 25.74 36.1048 25.26C36.1448 24.82 36.2048 24.26 36.2848 23.58C36.3648 22.9 36.4348 22.33 36.4948 21.87C36.5348 21.61 36.5748 21.35 36.6148 21.09C36.6548 20.83 36.6948 20.58 36.7348 20.34L38.8348 6.9H45.4348L40.3948 33H30.9748L25.9348 6.9H32.6848ZM70.6207 19.86V22.05H52.3807C52.5007 22.65 52.6907 23.21 52.9507 23.73C53.2307 24.23 53.5407 24.66 53.8807 25.02C54.2607 25.42 54.6607 25.75 55.0807 26.01C55.5007 26.27 56.0107 26.47 56.6107 26.61C56.8707 26.69 57.1407 26.75 57.4207 26.79C57.7207 26.83 58.0307 26.85 58.3507 26.85C59.3107 26.85 60.1907 26.69 60.9907 26.37C61.7907 26.05 62.4407 25.6 62.9407 25.02C63.0607 24.88 63.1707 24.73 63.2707 24.57C63.3707 24.41 63.4607 24.25 63.5407 24.09H70.4107C70.1307 25.33 69.7207 26.41 69.1807 27.33C68.6407 28.25 68.0407 29.02 67.3807 29.64C66.6207 30.4 65.7607 31.05 64.8007 31.59C63.8607 32.13 62.8307 32.55 61.7107 32.85C61.1707 32.99 60.6107 33.1 60.0307 33.18C59.4507 33.26 58.8607 33.3 58.2607 33.3C56.7207 33.3 55.3207 33.08 54.0607 32.64C52.8207 32.18 51.7107 31.57 50.7307 30.81C48.5907 29.17 47.1207 26.98 46.3207 24.24C45.9207 22.88 45.7207 21.42 45.7207 19.86C45.7207 18.36 45.9307 16.92 46.3507 15.54C46.7707 14.16 47.3607 12.93 48.1207 11.85C48.9007 10.75 49.8107 9.81 50.8507 9.03C51.9107 8.25 53.0707 7.65 54.3307 7.23C55.6107 6.81 56.9407 6.6 58.3207 6.6C59.6607 6.6 60.9707 6.83 62.2507 7.29C63.5307 7.73 64.6607 8.35 65.6407 9.15C66.6607 9.99 67.5407 10.95 68.2807 12.03C69.0407 13.11 69.6207 14.33 70.0207 15.69C70.4207 17.01 70.6207 18.4 70.6207 19.86ZM52.5007 17.55H63.9907C63.6707 16.49 63.1307 15.58 62.3707 14.82C61.6307 14.08 60.7607 13.56 59.7607 13.26C59.5007 13.2 59.2407 13.15 58.9807 13.11C58.7207 13.07 58.4507 13.05 58.1707 13.05C57.1507 13.05 56.1707 13.32 55.2307 13.86C54.8907 14.06 54.5307 14.34 54.1507 14.7C53.7907 15.06 53.4607 15.51 53.1607 16.05C52.8807 16.55 52.6607 17.05 52.5007 17.55ZM72.8672 6.9H79.6172C79.6172 6.98 79.5972 7.15 79.5572 7.41C79.5172 7.65 79.4672 7.84 79.4072 7.98C79.3272 8.2 79.2472 8.42 79.1672 8.64C79.0872 8.86 78.9672 9.12 78.8072 9.42C78.7472 9.54 78.6872 9.66 78.6272 9.78C78.5672 9.88 78.4972 9.99 78.4172 10.11L78.7772 10.41C79.1572 9.85 79.5172 9.4 79.8572 9.06C80.1972 8.7 80.5772 8.35 80.9972 8.01C81.3772 7.71 81.7972 7.45 82.2572 7.23C82.7172 7.01 83.1672 6.85 83.6072 6.75C83.8272 6.71 84.0472 6.68 84.2672 6.66C84.5072 6.62 84.7472 6.6 84.9872 6.6C85.5872 6.6 86.1772 6.7 86.7572 6.9C87.3572 7.08 87.8772 7.36 88.3172 7.74C89.1972 8.54 89.7772 9.66 90.0572 11.1C90.1172 11.46 90.1672 11.84 90.2072 12.24C90.2472 12.64 90.2672 13.06 90.2672 13.5V33H83.5172V14.7C83.5172 14.46 83.4972 14.28 83.4572 14.16C83.4172 14.02 83.3372 13.84 83.2172 13.62C83.1372 13.5 83.0172 13.39 82.8572 13.29C82.6972 13.19 82.5572 13.13 82.4372 13.11C82.2372 13.07 82.0572 13.05 81.8972 13.05C81.7372 13.05 81.5872 13.07 81.4472 13.11C81.3072 13.13 81.1572 13.16 80.9972 13.2C80.8172 13.24 80.6672 13.3 80.5472 13.38C80.4272 13.44 80.2672 13.52 80.0672 13.62C79.9872 13.66 79.9072 13.71 79.8272 13.77C79.7672 13.81 79.6972 13.86 79.6172 13.92V33H72.8672V6.9ZM101.208 0.599999V2.34C101.208 4.56 100.318 6.12 98.5378 7.02V7.5C99.4178 7.1 100.368 6.9 101.388 6.9H106.158V13.2H101.208V25.65C101.208 26.25 101.508 26.55 102.108 26.55H106.158L106.458 33H100.458C99.6578 33 98.9378 32.92 98.2978 32.76C97.6578 32.6 97.0978 32.36 96.6178 32.04C96.1378 31.76 95.7378 31.37 95.4178 30.87C95.0978 30.37 94.8578 29.82 94.6978 29.22C94.5378 28.58 94.4578 27.86 94.4578 27.06V13.2H92.0578V6.9H94.4578V0.599999H101.208ZM118.444 14.7V13.56C118.444 12.62 117.854 12.15 116.674 12.15C115.654 12.15 115.144 12.64 115.144 13.62C115.144 13.72 115.154 13.83 115.174 13.95C115.194 14.05 115.264 14.18 115.384 14.34C115.504 14.54 115.694 14.78 115.954 15.06C116.214 15.32 116.544 15.62 116.944 15.96C117.144 16.14 117.374 16.34 117.634 16.56C117.914 16.78 118.224 17.01 118.564 17.25C119.664 18.11 120.554 18.82 121.234 19.38C121.914 19.94 122.564 20.55 123.184 21.21C123.644 21.71 124.034 22.24 124.354 22.8C124.674 23.34 124.894 23.87 125.014 24.39C125.134 24.95 125.194 25.53 125.194 26.13C125.194 28.45 124.454 30.23 122.974 31.47C121.514 32.69 119.374 33.3 116.554 33.3C114.354 33.3 112.564 32.91 111.184 32.13C110.384 31.69 109.764 31.16 109.324 30.54C108.904 29.9 108.614 29.29 108.454 28.71C108.214 27.91 108.094 27.07 108.094 26.19V23.85H113.944V25.59C113.944 26.13 114.084 26.57 114.364 26.91C114.544 27.15 114.704 27.32 114.844 27.42C115.004 27.5 115.214 27.57 115.474 27.63C115.594 27.67 115.714 27.7 115.834 27.72C115.974 27.74 116.114 27.75 116.254 27.75C116.494 27.75 116.714 27.73 116.914 27.69C117.134 27.65 117.374 27.56 117.634 27.42C117.994 27.22 118.234 26.94 118.354 26.58C118.414 26.34 118.444 26.14 118.444 25.98C118.444 25.78 118.414 25.58 118.354 25.38C118.294 25.18 118.184 24.97 118.024 24.75C117.884 24.57 117.634 24.32 117.274 24C116.934 23.68 116.594 23.38 116.254 23.1C116.034 22.92 115.794 22.73 115.534 22.53C115.274 22.33 114.984 22.11 114.664 21.87C113.724 21.15 112.874 20.47 112.114 19.83C111.374 19.19 110.774 18.6 110.314 18.06C109.834 17.5 109.454 16.97 109.174 16.47C108.894 15.97 108.694 15.44 108.574 14.88C108.454 14.34 108.394 13.78 108.394 13.2C108.394 8.8 111.074 6.6 116.434 6.6C117.434 6.6 118.364 6.69 119.224 6.87C120.104 7.03 120.844 7.27 121.444 7.59C122.704 8.29 123.554 9.28 123.994 10.56C124.194 11.18 124.294 11.91 124.294 12.75V14.7H118.444Z" fill="white"/>
</svg>
